<svg width="1440" height="1735" viewBox="0 0 1440 1735" fill="none"
    xmlns="http://www.w3.org/2000/svg">
    <path opacity="0.0144928"
        d="M1711.19 1459.54C1719.97 1463.88 1730.04 1462.88 1736.7 1457.07L1737.01 1456.79L1956.16 1257.05C1960.45 1253.14 1962.76 1247.59 1962.61 1241.61L1962.59 1241.03L1941.33 830.94C1941.07 826 1939.15 821.118 1935.86 817.04L1935.54 816.647L1684.79 517.667C1679.21 511.013 1670.64 507.44 1662.37 508.322L1381.5 538.29C1373.49 539.144 1366.98 544.051 1364.29 551.192L1364.04 551.891L1251 889.686C1249.48 894.235 1249.6 899.291 1251.34 904.08L1251.51 904.542L1404.58 1300.57C1406.82 1306.37 1411.27 1311.28 1416.94 1314.25L1417.49 1314.53L1711.19 1459.54Z"
        stroke="url(#paint0_linear_1_149)" stroke-width="4" />
    <path opacity="0.0289855"
        d="M1659.99 1456.61C1668.43 1461.26 1678.4 1460.75 1685.34 1455.35L1685.66 1455.09L1916.04 1268.13C1920.59 1264.44 1923.26 1258.97 1923.47 1252.95L1923.48 1252.37L1926.73 847.446C1926.77 842.43 1925.1 837.391 1921.99 833.117L1921.69 832.706L1689.73 526.636C1684.54 519.782 1676.23 515.851 1667.98 516.341L1386.04 533.055C1378.05 533.529 1371.29 538.081 1368.18 545.036L1367.89 545.717L1235.18 873.406C1233.35 877.928 1233.16 883.058 1234.65 887.99L1234.8 888.467L1363.64 1285.56C1365.56 1291.49 1369.77 1296.64 1375.3 1299.85L1375.84 1300.16L1659.99 1456.61Z"
        stroke="url(#paint1_linear_1_149)" stroke-width="4" />
    <path opacity="0.0434783"
        d="M1609.1 1452.33C1617.19 1457.27 1627.06 1457.22 1634.25 1452.25L1634.59 1452.01L1875.35 1278.23C1880.16 1274.76 1883.18 1269.4 1883.75 1263.37L1883.8 1262.78L1911.06 864.101C1911.41 859.032 1910.01 853.855 1907.1 849.398L1906.81 848.969L1693.93 536.769C1689.14 529.734 1681.12 525.464 1672.9 525.567L1390.72 529.111C1382.75 529.211 1375.78 533.402 1372.24 540.153L1371.91 540.814L1220.27 857.592C1218.13 862.066 1217.63 867.248 1218.85 872.306L1218.97 872.794L1323.7 1269.81C1325.3 1275.87 1329.23 1281.22 1334.61 1284.69L1335.14 1285.02L1609.1 1452.33Z"
        stroke="url(#paint2_linear_1_149)" stroke-width="4" />
    <path opacity="0.057971"
        d="M1558.61 1446.71C1566.35 1451.93 1576.1 1452.34 1583.53 1447.79L1583.88 1447.57L1834.15 1287.33C1839.2 1284.1 1842.57 1278.87 1843.51 1272.84L1843.6 1272.25L1894.32 880.854C1894.98 875.752 1893.87 870.458 1891.18 865.833L1890.91 865.387L1697.34 548.016C1692.95 540.819 1685.22 536.224 1677.05 535.948L1395.45 526.446C1387.53 526.179 1380.34 530.004 1376.4 536.533L1376.03 537.174L1206.24 842.284C1203.79 846.688 1202.97 851.898 1203.91 857.061L1204.01 857.56L1284.81 1253.4C1286.06 1259.55 1289.72 1265.1 1294.93 1268.8L1295.43 1269.15L1558.61 1446.71Z"
        stroke="url(#paint3_linear_1_149)" stroke-width="4" />
    <path opacity="0.0724638"
        d="M1508.59 1439.81C1515.98 1445.29 1525.6 1446.14 1533.25 1442.01L1533.61 1441.8L1792.5 1295.42C1797.77 1292.44 1801.49 1287.36 1802.8 1281.37L1802.92 1280.78L1876.5 897.646C1877.48 892.537 1876.67 887.147 1874.22 882.371L1873.97 881.91L1699.87 560.322C1695.9 552.982 1688.48 548.078 1680.36 547.43L1400.15 525.046C1392.29 524.418 1384.91 527.874 1380.58 534.165L1380.17 534.783L1193.06 827.516C1190.3 831.827 1189.16 837.041 1189.8 842.288L1189.87 842.795L1247 1236.37C1247.9 1242.59 1251.26 1248.32 1256.28 1252.25L1256.77 1252.62L1508.59 1439.81Z"
        stroke="url(#paint4_linear_1_149)" stroke-width="4" />
    <path opacity="0.0869565"
        d="M1459.13 1431.65C1466.15 1437.39 1475.65 1438.66 1483.5 1434.95L1483.88 1434.77L1750.47 1302.49C1755.95 1299.77 1760 1294.87 1761.69 1288.93L1761.84 1288.36L1857.62 914.426C1858.92 909.335 1858.42 903.874 1856.22 898.964L1856 898.491L1701.48 573.632C1697.93 566.167 1690.82 560.972 1682.78 559.957L1404.77 524.896C1396.97 523.913 1389.41 526.994 1384.7 533.031L1384.25 533.624L1180.68 813.324C1177.63 817.52 1176.15 822.71 1176.49 828.017L1176.53 828.531L1210.31 1218.8C1210.85 1225.07 1213.89 1230.95 1218.71 1235.09L1219.18 1235.49L1459.13 1431.65Z"
        stroke="url(#paint5_linear_1_149)" stroke-width="4" />
    <path opacity="0.101449"
        d="M1410.29 1422.28C1416.96 1428.26 1426.31 1429.95 1434.36 1426.66L1434.74 1426.5L1708.12 1308.54C1713.8 1306.1 1718.16 1301.4 1720.22 1295.54L1720.41 1294.97L1837.67 931.139C1839.3 926.092 1839.12 920.586 1837.17 915.563L1836.98 915.078L1702.1 587.887C1698.98 580.317 1692.19 574.842 1684.23 573.467L1409.21 525.973C1401.49 524.641 1393.77 527.345 1388.68 533.112L1388.2 533.679L1169.08 799.737C1165.73 803.796 1163.93 808.937 1163.96 814.279L1163.97 814.796L1174.76 1200.74C1174.94 1207.03 1177.64 1213.04 1182.25 1217.39L1182.7 1217.81L1410.29 1422.28Z"
        stroke="url(#paint6_linear_1_149)" stroke-width="4" />
    <path opacity="0.115942"
        d="M1362.16 1411.74C1368.46 1417.96 1377.68 1420.06 1385.9 1417.18L1386.29 1417.04L1665.52 1313.57C1671.36 1311.41 1676.03 1306.92 1678.46 1301.17L1678.69 1300.61L1816.67 947.734C1818.61 942.757 1818.76 937.235 1817.09 932.118L1816.92 931.625L1701.67 603.026C1698.99 595.37 1692.53 589.632 1684.66 587.901L1413.4 528.257C1405.78 526.58 1397.9 528.901 1392.46 534.383L1391.94 534.924L1158.2 786.786C1154.58 790.687 1152.45 795.751 1152.16 801.102L1152.14 801.62L1140.38 1182.25C1140.19 1188.54 1142.56 1194.66 1146.93 1199.21L1147.35 1199.64L1362.16 1411.74Z"
        stroke="url(#paint7_linear_1_149)" stroke-width="4" />
    <path opacity="0.130435"
        d="M1314.8 1400.08C1320.64 1406.43 1329.52 1408.95 1337.79 1406.69L1338.59 1406.46L1622.72 1317.59C1628.72 1315.71 1633.68 1311.46 1636.46 1305.84L1636.72 1305.3L1794.62 964.162C1796.88 959.281 1797.35 953.767 1795.97 948.581L1795.83 948.08L1700.16 618.987C1697.91 611.263 1691.79 605.274 1684.02 603.192L1417.28 531.718C1409.75 529.701 1401.74 531.635 1395.96 536.819L1395.41 537.331L1148 774.495C1144.12 778.217 1141.67 783.179 1141.07 788.512L1141.01 789.029L1107.19 1163.41C1106.63 1169.67 1108.65 1175.88 1112.77 1180.6L1113.18 1181.05L1314.8 1400.08Z"
        stroke="url(#paint8_linear_1_149)" stroke-width="4" />
    <path opacity="0.144928"
        d="M1268.28 1387.36C1273.76 1393.92 1282.48 1396.84 1290.89 1394.99L1291.71 1394.79L1579.78 1320.58C1585.92 1319 1591.15 1315.01 1594.28 1309.55L1594.58 1309.01L1771.55 980.375C1774.11 975.615 1774.91 970.138 1773.83 964.904L1773.71 964.398L1697.5 635.706C1695.7 627.933 1689.92 621.705 1682.26 619.276L1420.77 536.328C1413.35 533.975 1405.21 535.518 1399.11 540.39L1398.53 540.872L1138.45 762.89C1134.32 766.414 1131.56 771.246 1130.64 776.536L1130.56 777.05L1075.21 1144.27C1074.27 1150.47 1075.94 1156.75 1079.8 1161.64L1080.19 1162.11L1268.28 1387.36Z"
        stroke="url(#paint9_linear_1_149)" stroke-width="4" />
    <path opacity="0.15942"
        d="M1222.66 1373.63C1227.77 1380.39 1236.34 1383.7 1244.88 1382.26L1245.7 1382.11L1536.78 1322.57C1543.03 1321.29 1548.52 1317.57 1551.98 1312.29L1552.31 1311.77L1747.47 996.324C1750.32 991.709 1751.45 986.298 1750.66 981.039L1750.58 980.531L1693.66 653.116C1692.3 645.312 1686.88 638.858 1679.34 636.086L1423.8 542.054C1416.5 539.368 1408.25 540.515 1401.85 545.063L1401.24 545.513L1129.5 751.991C1125.14 755.3 1122.08 759.977 1120.85 765.197L1120.73 765.704L1044.44 1124.89C1043.14 1131.02 1044.45 1137.34 1048.04 1142.38L1048.4 1142.86L1222.66 1373.63Z"
        stroke="url(#paint10_linear_1_149)" stroke-width="4" />
    <path opacity="0.173913"
        d="M1178.01 1358.94C1182.75 1365.9 1191.16 1369.6 1199.81 1368.58L1200.64 1368.46L1493.77 1323.56C1500.11 1322.59 1505.84 1319.16 1509.62 1314.08L1509.98 1313.58L1722.41 1011.97C1725.54 1007.52 1726.98 1002.2 1726.49 996.939L1726.44 996.43L1688.6 671.149C1687.69 663.334 1682.62 656.664 1675.22 653.552L1426.31 548.858C1419.14 545.842 1410.79 546.588 1404.11 550.801L1403.47 551.219L1121.09 741.813C1116.53 744.893 1113.19 749.393 1111.65 754.518L1111.5 755.016L1014.9 1105.35C1013.24 1111.37 1014.19 1117.71 1017.5 1122.88L1017.83 1123.38L1178.01 1358.94Z"
        stroke="url(#paint11_linear_1_149)" stroke-width="4" />
    <path opacity="0.188406"
        d="M1134.38 1343.36C1138.73 1350.51 1146.98 1354.59 1155.73 1353.99L1156.57 1353.92L1450.8 1323.58C1457.23 1322.91 1463.16 1319.78 1467.24 1314.92L1467.63 1314.44L1696.38 1027.26C1699.77 1023 1701.52 1017.8 1701.34 1012.56L1701.31 1012.05L1682.28 689.738C1681.82 681.93 1677.11 675.056 1669.86 671.606L1428.23 556.702C1421.2 553.36 1412.77 553.701 1405.82 557.567L1405.15 557.952L1113.19 732.377C1108.44 735.213 1104.84 739.513 1103 744.52L1102.83 745.007L986.588 1085.69C984.576 1091.59 985.162 1097.92 988.189 1103.22L988.49 1103.73L1134.38 1343.36Z"
        stroke="url(#paint12_linear_1_149)" stroke-width="4" />
    <path opacity="0.202899"
        d="M1091.82 1326.95C1095.78 1334.28 1103.85 1338.75 1112.69 1338.57L1113.55 1338.54L1407.95 1322.62C1414.43 1322.27 1420.55 1319.45 1424.92 1314.82L1425.33 1314.37L1669.41 1042.16C1673.05 1038.11 1675.1 1033.05 1675.21 1027.85L1675.22 1027.35L1674.69 708.814C1674.68 701.03 1670.33 693.963 1663.24 690.178L1429.5 565.546C1422.62 561.88 1414.13 561.809 1406.93 565.319L1406.24 565.67L1105.74 723.692C1100.84 726.274 1096.99 730.356 1094.86 735.223L1094.66 735.697L959.508 1065.98C957.156 1071.73 957.38 1078.04 960.111 1083.45L960.383 1083.97L1091.82 1326.95Z"
        stroke="url(#paint13_linear_1_149)" stroke-width="4" />
    <path opacity="0.217391"
        d="M1050.38 1309.77C1054.01 1317.4 1062.09 1322.29 1071.18 1322.39L1071.61 1322.39L1365.26 1320.71C1371.77 1320.67 1378.07 1318.17 1382.69 1313.81L1383.13 1313.38L1641.54 1056.64C1645.4 1052.81 1647.73 1047.9 1648.14 1042.77L1648.17 1042.27L1665.79 728.304C1666.22 720.563 1662.25 713.315 1655.33 709.198L1430.07 575.344C1423.35 571.356 1414.81 570.87 1407.38 574.014L1406.67 574.329L1098.71 715.772C1093.66 718.09 1089.6 721.938 1087.2 726.645L1086.97 727.102L933.654 1046.29C930.975 1051.87 930.842 1058.13 933.269 1063.63L933.512 1064.16L1050.38 1309.77Z"
        stroke="url(#paint14_linear_1_149)" stroke-width="4" />
    <path opacity="0.231884"
        d="M1010.1 1291.89C1013.32 1299.69 1021.2 1304.97 1030.37 1305.51L1030.8 1305.53L1322.79 1317.88C1329.32 1318.15 1335.76 1315.98 1340.62 1311.89L1341.09 1311.48L1612.79 1070.65C1616.84 1067.05 1619.44 1062.33 1620.14 1057.28L1620.21 1056.79L1655.56 748.14C1656.44 740.461 1652.85 733.042 1646.11 728.596L1429.87 586.05C1423.33 581.742 1414.76 580.837 1407.12 583.606L1406.39 583.885L1092.04 708.622C1086.88 710.671 1082.61 714.271 1079.96 718.799L1079.71 719.24L909.021 1026.66C906.029 1032.05 905.544 1038.25 907.661 1043.82L907.874 1044.36L1010.1 1291.89Z"
        stroke="url(#paint15_linear_1_149)" stroke-width="4" />
    <path opacity="0.246377"
        d="M971.027 1273.37C973.829 1281.33 981.501 1287.01 990.717 1288L991.156 1288.04L1280.61 1314.14C1287.13 1314.73 1293.68 1312.89 1298.76 1309.07L1299.25 1308.7L1583.19 1084.16C1587.42 1080.81 1590.27 1076.28 1591.26 1071.33L1591.34 1070.85L1643.99 768.25C1645.31 760.651 1642.11 753.073 1635.57 748.3L1428.85 597.614C1422.51 592.991 1413.93 591.661 1406.1 594.047L1405.35 594.289L1085.69 702.251C1080.44 704.026 1075.99 707.367 1073.1 711.701L1072.82 712.124L885.597 1007.17C882.308 1012.35 881.479 1018.46 883.282 1024.1L883.464 1024.64L971.027 1273.37Z"
        stroke="url(#paint16_linear_1_149)" stroke-width="4" />
    <path opacity="0.26087"
        d="M933.192 1254.29C935.565 1262.4 943.01 1268.48 952.262 1269.92L952.704 1269.98L1238.74 1309.52C1245.24 1310.42 1251.88 1308.92 1257.17 1305.4L1257.67 1305.05L1552.78 1097.13C1557.17 1094.04 1560.24 1089.71 1561.5 1084.88L1561.62 1084.42L1631.07 788.565C1632.83 781.064 1630.03 773.337 1623.7 768.242L1426.97 609.985C1420.83 605.049 1412.27 603.292 1404.27 605.288L1403.5 605.494L1079.61 696.662C1074.29 698.161 1069.69 701.234 1066.58 705.361L1066.28 705.763L863.372 987.851C859.802 992.815 858.635 998.825 860.119 1004.51L860.271 1005.05L933.192 1254.29Z"
        stroke="url(#paint17_linear_1_149)" stroke-width="4" />
    <path opacity="0.275362"
        d="M896.626 1234.71C898.559 1242.96 905.757 1249.44 915.027 1251.33L915.47 1251.42L1197.26 1304.05C1203.71 1305.25 1210.42 1304.1 1215.88 1300.87L1216.4 1300.55L1521.58 1109.54C1526.11 1106.71 1529.39 1102.61 1530.92 1097.91L1531.06 1097.45L1616.8 809.014C1618.99 801.628 1616.59 793.765 1610.49 788.352L1424.18 623.108C1418.26 617.864 1409.73 615.679 1401.59 617.279L1400.8 617.445L1073.76 691.857C1068.39 693.079 1063.66 695.879 1060.34 699.789L1060.02 700.171L842.327 968.776C838.494 973.506 836.997 979.398 838.16 985.109L838.281 985.661L896.626 1234.71Z"
        stroke="url(#paint18_linear_1_149)" stroke-width="4" />
    <path opacity="0.289855"
        d="M861.354 1214.71C862.834 1223.08 869.766 1229.97 879.032 1232.32L879.475 1232.43L1156.21 1297.76C1162.59 1299.27 1169.35 1298.46 1174.96 1295.53L1175.5 1295.24L1489.64 1121.36C1494.28 1118.79 1497.76 1114.91 1499.54 1110.36L1499.7 1109.92L1601.16 829.527C1603.78 822.275 1601.79 814.289 1595.94 808.563L1420.43 636.931C1414.75 631.384 1406.28 628.767 1398.02 629.967L1397.22 630.095L1068.08 687.837C1062.68 688.783 1057.84 691.306 1054.34 694.989L1054.01 695.349L822.443 949.995C818.364 954.48 816.548 960.238 817.388 965.964L817.478 966.518L861.354 1214.71Z"
        stroke="url(#paint19_linear_1_149)" stroke-width="4" />
    <path opacity="0.304348"
        d="M827.396 1194.36C828.413 1202.84 835.056 1210.13 844.294 1212.94L844.736 1213.07L1115.63 1290.68C1121.93 1292.48 1128.7 1292.02 1134.44 1289.4L1135 1289.14L1457 1132.55C1461.73 1130.25 1465.39 1126.61 1467.4 1122.21L1467.59 1121.79L1584.17 850.035C1587.22 842.934 1585.65 834.841 1580.06 828.808L1415.68 651.395C1410.27 645.551 1401.88 642.502 1393.52 643.296L1392.71 643.385L1062.53 684.598C1057.13 685.271 1052.21 687.517 1048.53 690.967L1048.18 691.305L803.696 931.558C799.39 935.789 797.266 941.401 797.782 947.127L797.84 947.681L827.396 1194.36Z"
        stroke="url(#paint20_linear_1_149)" stroke-width="4" />
    <path opacity="0.318841"
        d="M794.767 1173.72C795.308 1182.31 801.638 1189.99 810.823 1193.26L811.262 1193.42L1075.57 1282.84C1081.76 1284.94 1088.54 1284.81 1094.39 1282.5L1094.95 1282.27L1423.69 1143.09C1428.49 1141.06 1432.31 1137.66 1434.55 1133.43L1434.76 1133.02L1565.83 870.471C1569.29 863.539 1568.15 855.351 1562.85 849.019L1409.91 666.442C1404.77 660.309 1396.49 656.829 1388.05 657.215L1387.24 657.265L1057.07 682.137C1051.69 682.543 1046.69 684.511 1042.87 687.724L1042.5 688.039L786.061 913.518C781.546 917.488 779.123 922.939 779.315 928.651L779.342 929.204L794.767 1173.72Z"
        stroke="url(#paint21_linear_1_149)" stroke-width="4" />
    <path opacity="0.333333"
        d="M763.479 1152.89C763.533 1161.54 769.521 1169.61 778.627 1173.36L779.063 1173.53L1036.08 1274.29C1042.14 1276.67 1048.89 1276.87 1054.83 1274.87L1055.4 1274.67L1389.75 1152.97C1394.6 1151.2 1398.56 1148.04 1401.02 1143.98L1401.25 1143.59L1546.16 890.767C1550.03 884.021 1549.33 875.755 1544.33 869.134L1403.08 682.012C1398.24 675.599 1390.09 671.692 1381.6 671.667L1380.78 671.676L1051.65 680.449C1046.3 680.591 1041.26 682.284 1037.3 685.257L1036.92 685.55L769.508 895.923C764.802 899.625 762.093 904.905 761.962 910.588L761.957 911.139L763.479 1152.89Z"
        stroke="url(#paint22_linear_1_149)" stroke-width="4" />
    <path opacity="0.362319"
        d="M704.935 1110.88C703.985 1119.63 709.205 1128.44 718.061 1133.11L718.485 1133.33L958.922 1255.16C964.691 1258.08 971.329 1258.94 977.385 1257.56L977.97 1257.42L1320.16 1170.61C1325.08 1169.36 1329.27 1166.69 1332.12 1163L1332.39 1162.64L1502.88 930.684C1507.53 924.361 1507.73 915.991 1503.41 908.828L1386.13 714.477C1381.94 707.537 1374.15 702.79 1365.64 701.943L1364.81 701.873L1040.76 679.358C1035.52 678.993 1030.43 680.147 1026.25 682.638L1025.85 682.884L739.519 862.256C734.483 865.41 731.233 870.319 730.462 875.902L730.394 876.445L704.935 1110.88Z"
        stroke="url(#paint23_linear_1_149)" stroke-width="4" />
    <path opacity="0.376812"
        d="M677.675 1089.85C676.21 1098.61 680.999 1107.77 689.682 1112.9L690.098 1113.15L921.336 1244.67C926.931 1247.85 933.484 1249.02 939.574 1247.94L940.162 1247.83L1284.6 1178.34C1289.52 1177.34 1293.81 1174.92 1296.84 1171.42L1297.13 1171.08L1479.32 950.18C1484.34 944.092 1485.01 935.699 1481.05 928.286L1375.97 731.247C1372.14 724.066 1364.57 718.912 1356.08 717.655L1355.26 717.546L1035.2 679.933C1030.03 679.326 1024.94 680.217 1020.68 682.47L1020.27 682.693L726.011 846.272C720.835 849.15 717.331 853.859 716.243 859.373L716.146 859.909L677.675 1089.85Z"
        stroke="url(#paint24_linear_1_149)" stroke-width="4" />
    <path opacity="0.391304"
        d="M651.745 1068.9C649.759 1077.64 654.086 1087.13 662.562 1092.72L662.968 1092.98L884.453 1233.61C889.859 1237.04 896.311 1238.52 902.417 1237.74L903.007 1237.66L1248.58 1185.32C1253.5 1184.58 1257.88 1182.39 1261.07 1179.08L1261.37 1178.76L1454.52 969.286C1459.9 963.45 1461.03 955.055 1457.47 947.411L1364.67 748.293C1361.22 740.888 1353.9 735.338 1345.46 733.674L1344.64 733.525L1029.51 681.241C1024.42 680.398 1019.35 681.033 1015.01 683.048L1014.59 683.248L713.441 830.911C708.14 833.51 704.394 838.014 702.994 843.445L702.866 843.973L651.745 1068.9Z"
        stroke="url(#paint25_linear_1_149)" stroke-width="4" />
    <path opacity="0.405797"
        d="M627.129 1048.1C624.617 1056.8 628.451 1066.59 636.684 1072.62L637.08 1072.9L848.305 1222.02C853.506 1225.7 859.838 1227.48 865.946 1227L866.537 1226.94L1212.16 1191.54C1217.07 1191.04 1221.51 1189.09 1224.86 1185.98L1225.18 1185.67L1428.5 987.948C1434.23 982.377 1435.84 974.003 1432.69 966.148L1352.22 765.552C1349.16 757.942 1342.12 752.009 1333.77 749.943L1332.95 749.755L1023.64 683.265C1018.65 682.193 1013.6 682.578 1009.19 684.359L1008.77 684.536L701.768 816.208C696.356 818.529 692.378 822.822 690.67 828.159L690.512 828.678L627.129 1048.1Z"
        stroke="url(#paint26_linear_1_149)" stroke-width="4" />
    <path opacity="0.42029"
        d="M603.807 1027.51C600.767 1036.13 604.078 1046.2 612.033 1052.66L612.415 1052.96L812.915 1209.96C817.898 1213.86 824.096 1215.93 830.191 1215.75L830.781 1215.72L1175.38 1196.99C1180.27 1196.72 1184.77 1195.01 1188.27 1192.09L1188.6 1191.81L1401.32 1006.11C1407.38 1000.82 1409.46 992.489 1406.74 984.444L1338.61 782.961C1335.97 775.168 1329.24 768.869 1320.98 766.406L1320.18 766.18L1017.56 685.989C1012.68 684.696 1007.65 684.837 1003.19 686.387L1002.76 686.542L690.946 802.204C685.437 804.248 681.238 808.322 679.226 813.553L679.038 814.062L603.807 1027.51Z"
        stroke="url(#paint27_linear_1_149)" stroke-width="4" />
    <path opacity="0.434783"
        d="M581.753 1007.2C578.187 1015.72 580.946 1026.03 588.585 1032.9L588.953 1033.22L778.309 1197.45C783.059 1201.57 789.109 1203.93 795.178 1204.03L795.766 1204.03L1138.29 1201.66C1143.14 1201.62 1147.71 1200.14 1151.34 1197.42L1151.69 1197.15L1372.99 1023.72C1379.37 1018.72 1381.93 1010.46 1379.66 1002.25L1323.84 800.458C1321.64 792.505 1315.25 785.861 1307.12 783.008L1306.33 782.744L1011.22 689.396C1006.45 687.888 1001.47 687.792 996.963 689.113L996.528 689.246L680.926 788.93C675.334 790.697 670.924 794.549 668.614 799.662L668.397 800.161L581.753 1007.2Z"
        stroke="url(#paint28_linear_1_149)" stroke-width="4" />
    <path opacity="0.463768"
        d="M541.33 967.648C536.727 975.868 538.306 986.54 545.206 994.166L545.539 994.526L711.524 1171.3C715.771 1175.82 721.487 1178.71 727.47 1179.38L728.05 1179.44L1063.37 1208.61C1068.15 1209.03 1072.79 1208 1076.68 1205.67L1077.06 1205.44L1313.12 1057.08C1320.07 1052.71 1323.6 1044.67 1322.28 1036.22L1290.84 835.474C1289.56 827.284 1283.93 820.013 1276.14 816.41L1275.38 816.073L997.621 698.176C993.102 696.258 988.222 695.702 983.644 696.578L983.202 696.668L663.103 764.698C657.377 765.915 652.571 769.308 649.681 774.154L649.407 774.628L541.33 967.648Z"
        stroke="url(#paint29_linear_1_149)" stroke-width="4" />
    <path opacity="0.478261"
        d="M522.889 948.529C517.783 956.549 518.741 967.336 525.219 975.3L525.532 975.677L679.38 1157.74C683.358 1162.45 688.888 1165.59 694.812 1166.53L695.386 1166.62L1025.64 1210.89C1030.37 1211.53 1035.05 1210.72 1039.06 1208.58L1039.44 1208.37L1281.66 1072.74C1288.87 1068.7 1292.88 1060.82 1292.05 1052.29L1272.63 852.872C1271.83 844.609 1266.62 837.065 1259.03 833.102L1258.29 832.73L990.289 703.507C985.903 701.392 981.082 700.613 976.477 701.271L976.032 701.339L655.194 753.795C649.416 754.74 644.426 757.895 641.255 762.592L640.953 763.051L640.953 763.052L522.889 948.529Z"
        stroke="url(#paint30_linear_1_149)" stroke-width="4" />
    <path opacity="0.492754"
        d="M505.573 929.918C499.979 937.707 500.302 948.559 506.325 956.83L506.616 957.222L648.084 1143.91C651.782 1148.79 657.116 1152.19 662.971 1153.4L663.54 1153.51L987.799 1212.38C992.47 1213.23 997.183 1212.64 1001.3 1210.7L1001.7 1210.51L1249.26 1087.67C1256.71 1083.97 1261.19 1076.27 1260.86 1067.7L1253.31 870.122C1252.99 861.817 1248.22 854.029 1240.87 849.72L1240.15 849.315L982.556 709.432C978.307 707.125 973.548 706.128 968.921 706.57L968.473 706.617L647.882 743.731C642.061 744.405 636.895 747.321 633.449 751.859L633.121 752.303L505.573 929.918Z"
        stroke="url(#paint31_linear_1_149)" stroke-width="4" />
    <path opacity="0.521739"
        d="M474.133 894.42C467.625 901.651 466.655 912.474 471.679 921.249L471.923 921.666L588.076 1115.65C591.181 1120.84 596.094 1124.7 601.784 1126.44L602.337 1126.6L911.969 1212.97C916.521 1214.24 921.286 1214.09 925.623 1212.54L926.041 1212.39L1181.84 1115.19C1189.71 1112.2 1195.09 1104.95 1195.78 1096.4L1211.4 903.957C1212.07 895.671 1208.24 887.491 1201.42 882.535L1200.75 882.066L965.748 722.969C961.79 720.289 957.169 718.864 952.507 718.878L952.055 718.884L634.822 726.201C628.942 726.337 623.446 728.759 619.472 732.951L619.092 733.362L474.133 894.42Z"
        stroke="url(#paint32_linear_1_149)" stroke-width="4" />
    <path opacity="0.536232"
        d="M459.912 877.62C452.984 884.528 451.368 895.253 455.855 904.222L456.074 904.648L559.372 1101.3C562.167 1106.62 566.855 1110.7 572.449 1112.7L572.994 1112.89L874.081 1212.09C878.569 1213.57 883.355 1213.63 887.795 1212.28L888.224 1212.15L1146.93 1127.71C1154.98 1125.08 1160.79 1118.11 1161.99 1109.62L1188.86 920.438C1190.02 912.214 1186.69 903.89 1180.17 898.636L1179.53 898.137L956.613 730.526C952.807 727.664 948.259 726.026 943.585 725.828L943.131 725.813L628.958 718.766C623.06 718.634 617.412 720.803 613.183 724.808L612.778 725.202L459.912 877.62Z"
        stroke="url(#paint33_linear_1_149)" stroke-width="4" />
    <path opacity="0.550725"
        d="M446.617 861.506C439.3 868.063 437.048 878.636 440.979 887.755L441.17 888.188L531.54 1086.87C534.015 1092.31 538.468 1096.6 543.959 1098.85L544.493 1099.06L836.277 1210.43C840.696 1212.12 845.502 1212.4 850.043 1211.25L850.481 1211.13L1111.31 1139.37C1119.51 1137.11 1125.73 1130.44 1127.44 1122.05L1165.31 936.565C1166.97 928.438 1164.13 920.005 1157.94 914.47L1157.33 913.944L946.95 738.569C943.302 735.528 938.831 733.68 934.146 733.269L933.692 733.233L623.46 712.234C617.551 711.834 611.757 713.746 607.283 717.556L606.855 717.931L446.617 861.506Z"
        stroke="url(#paint34_linear_1_149)" stroke-width="4" />
    <path opacity="0.565217"
        d="M434.197 846.111C426.524 852.292 423.652 862.659 427.009 871.885L427.173 872.323L504.575 1072.38C506.722 1077.93 510.931 1082.43 516.31 1084.93L516.834 1085.17L798.603 1208.01C802.951 1209.91 807.776 1210.41 812.415 1209.46L812.863 1209.36L1075.03 1150.14C1083.37 1148.26 1089.97 1141.91 1092.18 1133.66L1140.78 952.293C1142.92 944.299 1140.6 935.792 1134.74 929.998L1134.17 929.446L936.734 747.071C933.25 743.853 928.858 741.793 924.164 741.168L923.709 741.111L618.267 706.613C612.356 705.946 606.424 707.595 601.711 711.2L601.259 711.555L434.197 846.111Z"
        stroke="url(#paint35_linear_1_149)" stroke-width="4" />
    <path opacity="0.57971"
        d="M422.593 831.468C414.6 837.25 411.13 847.358 413.903 856.646L414.04 857.088L478.475 1057.9C480.285 1063.54 484.242 1068.23 489.499 1070.98L490.012 1071.25L761.109 1204.84C765.382 1206.95 770.222 1207.68 774.958 1206.93L775.416 1206.85L1038.16 1160.01C1046.6 1158.5 1053.57 1152.51 1056.27 1144.42L1115.31 967.581C1117.92 959.753 1116.11 951.209 1110.62 945.176L1110.08 944.6L925.939 756C922.624 752.605 918.317 750.333 913.616 749.492L913.16 749.415L613.32 701.909C607.413 700.973 601.351 702.354 596.408 705.747L595.933 706.081L422.593 831.468Z"
        stroke="url(#paint36_linear_1_149)" stroke-width="4" />
    <path opacity="0.594203"
        d="M411.749 817.602C403.474 822.967 399.434 832.768 401.617 842.071L401.726 842.514L453.232 1043.45C454.698 1049.17 458.393 1054.05 463.52 1057.05L464.02 1057.34L723.843 1200.94C728.035 1203.26 732.889 1204.21 737.721 1203.67L738.188 1203.61L1000.76 1168.95C1009.28 1167.82 1016.58 1162.2 1019.75 1154.33L1088.93 982.389C1092 974.76 1090.71 966.216 1085.6 959.965L1085.09 959.368L914.541 765.324C911.404 761.755 907.184 759.268 902.479 758.208L902.023 758.11L608.556 698.122C602.662 696.917 596.478 698.025 591.314 701.196L590.818 701.51L411.749 817.602Z"
        stroke="url(#paint37_linear_1_149)" stroke-width="4" />
    <path opacity="0.623188"
        d="M392.108 792.294C383.39 796.782 378.317 805.836 379.319 815.035L379.372 815.473L405.277 1014.83C406.035 1020.66 409.178 1025.88 414.014 1029.38L414.487 1029.71L650.169 1191.01C654.185 1193.76 659.06 1195.18 664.077 1195.07L664.563 1195.05L924.638 1184.01C933.245 1183.65 941.117 1178.84 945.167 1171.47L1033.65 1010.43C1037.57 1003.29 1037.3 994.851 1032.99 988.236L1032.56 987.601L889.852 785.028C887.095 781.113 883.067 778.19 878.363 776.68L877.905 776.539L599.335 693.294C593.491 691.548 587.089 692.093 581.513 694.796L580.976 695.065L392.108 792.294Z"
        stroke="url(#paint38_linear_1_149)" stroke-width="4" />
    <path opacity="0.637681"
        d="M383.193 780.885C374.316 784.921 368.787 793.548 369.21 802.629L369.234 803.062L382.538 1000.74C382.932 1006.6 385.786 1011.98 390.461 1015.72L390.919 1016.08L613.853 1185.03C617.771 1188 622.65 1189.66 627.757 1189.77L628.252 1189.77L886.041 1190.12C894.654 1190.13 902.763 1185.75 907.218 1178.67L1004.83 1023.6C1009.14 1016.75 1009.37 1008.41 1005.47 1001.65L1005.08 1001L876.525 795.341C873.971 791.255 870.049 788.109 865.351 786.367L864.894 786.203L594.756 692.242C588.95 690.222 582.454 690.477 576.688 692.934L576.132 693.179L383.193 780.885Z"
        stroke="url(#paint39_linear_1_149)" stroke-width="4" />
    <path opacity="0.652174"
        d="M374.805 770.327C365.811 773.905 359.87 782.075 359.726 790.999L359.723 791.424L360.604 986.843C360.631 992.714 363.184 998.245 367.685 1002.22L368.127 1002.6L577.94 1178.4C581.751 1181.59 586.63 1183.5 591.823 1183.84L592.327 1183.86L847.177 1195.27C855.771 1195.66 864.079 1191.71 868.911 1184.96L975.273 1036.18C979.954 1029.63 980.666 1021.42 977.201 1014.54L976.853 1013.88L862.52 805.915C860.181 801.661 856.373 798.288 851.685 796.308L851.229 796.121L590.116 692.083C584.359 689.789 577.781 689.747 571.836 691.951L571.264 692.171L374.805 770.327Z"
        stroke="url(#paint40_linear_1_149)" stroke-width="4" />
    <path opacity="0.666667"
        d="M366.884 760.628C357.814 763.748 351.507 771.437 350.813 780.164L350.785 780.581L339.454 973.175C339.109 979.041 341.354 984.711 345.668 988.924L346.092 989.328L542.471 1171.15C546.167 1174.57 551.039 1176.73 556.315 1177.3L556.828 1177.35L808.108 1199.47C816.659 1200.22 825.131 1196.73 830.311 1190.31L945.04 1048.12C950.058 1041.9 951.243 1033.86 948.215 1026.89L947.909 1026.21L847.824 816.716C845.713 812.296 842.027 808.692 837.357 806.467L836.902 806.256L585.356 692.804C579.659 690.235 573.012 689.89 566.902 691.832L566.312 692.028L366.884 760.628Z"
        stroke="url(#paint41_linear_1_149)" stroke-width="4" />
    <path opacity="0.681159"
        d="M359.372 751.795C350.266 754.459 343.642 761.649 342.419 770.145L342.364 770.551L319.068 959.769C318.349 965.612 320.274 971.41 324.389 975.855L324.793 976.281L507.488 1163.3C511.056 1166.95 515.915 1169.38 521.269 1170.19L521.789 1170.26L768.9 1202.72C777.383 1203.83 785.983 1200.79 791.481 1194.72L914.172 1059.43C919.498 1053.55 921.137 1045.7 918.555 1038.66L918.291 1037.98L832.426 827.707C830.555 823.125 827.003 819.286 822.357 816.811L821.904 816.575L580.418 694.388C574.793 691.542 568.089 690.89 561.826 692.563L561.222 692.733L359.372 751.795Z"
        stroke="url(#paint42_linear_1_149)" stroke-width="4" />
    <path opacity="0.710145"
        d="M345.346 736.74C336.425 738.485 329.386 744.482 327.063 752.24L326.853 752.996L280.49 933.88C279.019 939.619 280.276 945.632 283.947 950.525L284.31 950.996L439.123 1145.95C442.398 1150.07 447.203 1153.05 452.696 1154.37L453.228 1154.49L690.328 1206.39C698.605 1208.21 707.35 1206.07 713.391 1200.76L850.725 1080.04C856.576 1074.9 859.067 1067.5 857.385 1060.39L857.209 1059.7L799.487 850.12C798.14 845.226 794.894 840.909 790.322 837.913L789.876 837.626L569.778 700.062C564.336 696.661 557.564 695.379 551.04 696.498L550.41 696.613L345.346 736.74Z"
        stroke="url(#paint43_linear_1_149)" stroke-width="4" />
    <path opacity="0.724638"
        d="M338.716 730.518C329.867 731.841 322.656 737.329 319.898 744.769L319.645 745.495L262.245 921.454C260.399 927.112 261.307 933.212 264.735 938.32L265.074 938.812L405.811 1136.51C408.917 1140.87 413.677 1144.14 419.227 1145.72L419.767 1145.87L651.088 1206.85C659.228 1208.99 667.993 1207.31 674.258 1202.39L818.241 1089.32C824.31 1084.55 827.195 1077.41 825.965 1070.31L825.833 1069.63L781.936 861.47C780.873 856.43 777.801 851.869 773.284 848.603L772.842 848.291L563.963 704.103C558.636 700.425 551.855 698.823 545.224 699.655L544.582 699.743L338.716 730.518Z"
        stroke="url(#paint44_linear_1_149)" stroke-width="4" />
    <path opacity="0.73913"
        d="M332.268 725.163C323.52 726.076 316.176 731.058 313.015 738.16L312.723 738.854L244.658 909.411C242.44 914.968 242.991 921.14 246.157 926.455L246.472 926.966L373.123 1126.61C376.043 1131.21 380.744 1134.77 386.342 1136.63L386.886 1136.8L611.962 1206.4C619.943 1208.87 628.694 1207.62 635.152 1203.1L785.315 1097.9C791.571 1093.52 794.828 1086.66 794.049 1079.59L793.961 1078.9L763.658 872.866C762.896 867.689 760.016 862.884 755.565 859.341L755.13 859.002L557.748 708.909C552.55 704.957 545.779 703.03 539.058 703.572L538.407 703.632L332.268 725.163Z"
        stroke="url(#paint45_linear_1_149)" stroke-width="4" />
    <path opacity="0.753623"
        d="M325.944 720.666C317.326 721.186 309.889 725.669 306.356 732.418L306.026 733.078L227.698 897.776C225.112 903.213 225.297 909.441 228.187 914.952L228.474 915.482L341.088 1116.28C343.804 1121.12 348.431 1124.98 354.065 1127.12L354.613 1127.33L573.007 1205.07C580.809 1207.85 589.516 1207.03 596.136 1202.91L751.995 1105.79C758.408 1101.79 762.016 1095.21 761.683 1088.2L761.639 1087.52L744.653 884.273C744.21 878.97 741.54 873.92 737.171 870.095L736.743 869.729L551.082 714.449C546.03 710.225 539.288 707.973 532.493 708.221L531.836 708.252L325.944 720.666Z"
        stroke="url(#paint46_linear_1_149)" stroke-width="4" />
    <path opacity="0.768116"
        d="M319.69 717.021C311.227 717.163 303.731 721.157 299.857 727.54L299.495 728.165L211.332 886.572C208.385 891.868 208.197 898.134 210.792 903.83L211.052 904.38L309.734 1105.57C312.226 1110.65 316.759 1114.82 322.416 1117.24L322.967 1117.47L534.283 1202.88C541.887 1205.95 550.52 1205.56 557.273 1201.84L718.329 1112.96C724.871 1109.35 728.805 1103.07 728.914 1096.15L728.913 1095.48L724.924 895.655C724.816 890.238 722.376 884.945 718.106 880.834L717.687 880.44L543.916 720.69C539.029 716.197 532.336 713.619 525.486 713.57L524.822 713.573L319.69 717.021Z"
        stroke="url(#paint47_linear_1_149)" stroke-width="4" />
    <path opacity="0.797101"
        d="M307.174 712.234C299.082 711.675 291.565 714.734 287.105 720.36L286.683 720.912L180.252 865.539C176.604 870.496 175.651 876.781 177.609 882.808L177.808 883.391L249.161 1083.14C251.14 1088.68 255.429 1093.48 261.086 1096.5L261.638 1096.79L457.748 1196.03C464.903 1199.65 473.306 1200.06 480.243 1197.12L650.148 1125.17C656.869 1122.32 661.387 1116.69 662.356 1110L662.438 1109.35L683.319 918.203C683.931 912.603 682.013 906.835 677.996 902.144L677.6 901.695L527.905 735.123C523.401 730.112 516.87 726.888 509.964 726.242L509.296 726.187L307.174 712.234Z"
        stroke="url(#paint48_linear_1_149)" stroke-width="4" />
    <path opacity="0.811594"
        d="M300.806 711.063C292.924 710.182 285.437 712.796 280.728 718.037L280.282 718.552L165.468 855.743C161.485 860.503 160.142 866.768 161.758 872.938L161.923 873.534L219.983 1071.51C221.672 1077.27 225.803 1082.38 231.435 1085.71L231.985 1086.02L420.043 1191.43C426.95 1195.3 435.203 1196.09 442.194 1193.54L615.728 1130.21C622.501 1127.74 627.279 1122.43 628.662 1115.89L628.785 1115.26L661.458 929.298C662.453 923.634 660.83 917.64 656.971 912.659L656.59 912.18L518.974 743.237C514.691 737.979 508.275 734.437 501.369 733.493L500.7 733.409L300.806 711.063Z"
        stroke="url(#paint49_linear_1_149)" stroke-width="4" />
    <path opacity="0.826087"
        d="M294.296 710.683C286.637 709.498 279.203 711.686 274.275 716.541L273.806 717.02L151.141 846.45C146.833 850.994 145.097 857.218 146.356 863.511L146.487 864.12L191.567 1059.66C192.942 1065.62 196.891 1071.05 202.478 1074.68L203.025 1075.03L382.779 1186.09C389.424 1190.19 397.509 1191.34 404.532 1189.16L581.151 1134.54C587.955 1132.44 592.968 1127.47 594.754 1121.1L594.916 1120.48L638.907 940.231C640.3 934.523 638.996 928.312 635.317 923.043L634.954 922.537L509.377 751.894C505.333 746.399 499.055 742.545 492.168 741.304L491.5 741.191L294.296 710.683Z"
        stroke="url(#paint50_linear_1_149)" stroke-width="4" />
    <path opacity="0.84058"
        d="M287.593 711.074C280.167 709.604 272.806 711.383 267.686 715.855L267.197 716.295L137.233 837.67C132.616 841.982 130.484 848.142 131.37 854.54L131.466 855.159L163.924 1047.63C164.963 1053.79 168.704 1059.53 174.225 1063.47L174.765 1063.84L346.005 1180.04C352.377 1184.36 360.273 1185.85 367.306 1184.05L546.463 1138.18C553.276 1136.44 558.504 1131.81 560.678 1125.63L560.879 1125.03L615.68 950.966C617.483 945.238 616.521 938.824 613.046 933.272L612.703 932.737L499.078 761.049C495.293 755.33 489.175 751.171 482.325 749.636L481.66 749.495L287.593 711.074Z"
        stroke="url(#paint51_linear_1_149)" stroke-width="4" />
    <path opacity="0.855072"
        d="M280.649 712.212C273.464 710.475 266.191 711.863 260.906 715.954L260.4 716.358L123.708 829.412C118.795 833.476 116.269 839.55 116.771 846.031L116.828 846.659L137.066 1035.46C137.745 1041.8 141.249 1047.84 146.683 1052.09L147.215 1052.5L309.763 1173.32C315.851 1177.84 323.544 1179.65 330.568 1178.21L511.709 1141.13C518.513 1139.74 523.934 1135.45 526.482 1129.48L526.72 1128.9L591.794 961.474C594.019 955.75 593.423 949.149 590.177 943.321L589.854 942.759L488.047 770.657C484.539 764.727 478.603 760.274 471.809 758.447L471.15 758.278L280.649 712.212Z"
        stroke="url(#paint52_linear_1_149)" stroke-width="4" />
    <path opacity="0.869565"
        d="M273.416 714.072C266.477 712.085 259.307 713.101 253.879 716.815L253.36 717.183L110.529 821.687C105.336 825.487 102.417 831.452 102.522 837.993L102.542 838.628L110.997 1023.21C111.294 1029.7 114.535 1036.04 119.858 1040.59L120.379 1041.03L274.095 1165.96C279.89 1170.67 287.367 1172.79 294.364 1171.71L476.932 1143.4C483.71 1142.34 489.306 1138.4 492.213 1132.66L492.486 1132.1L567.27 971.724C569.924 966.031 569.717 959.261 566.724 953.167L566.426 952.58L476.257 780.673C473.044 774.548 467.311 769.81 460.592 767.697L459.939 767.501L273.416 714.072Z"
        stroke="url(#paint53_linear_1_149)" stroke-width="4" />
    <path opacity="0.884058"
        d="M265.849 716.628C259.16 714.407 252.105 715.068 246.557 718.411L246.025 718.743L97.6605 814.498C92.204 818.02 88.8945 823.854 88.5943 830.431L88.5755 831.069L85.7207 1010.91C85.6155 1017.54 88.5627 1024.16 93.752 1029.01L94.2614 1029.47L239.041 1158.02C244.536 1162.9 251.786 1165.31 258.74 1164.57L442.177 1144.99C448.914 1144.28 454.665 1140.68 457.913 1135.17L458.22 1134.63L542.127 981.687C545.217 976.053 545.42 969.137 542.706 962.791L542.434 962.178L463.682 791.046C460.781 784.744 455.274 779.735 448.645 777.341L448.001 777.117L265.849 716.628Z"
        stroke="url(#paint54_linear_1_149)" stroke-width="4" />
    <path opacity="0.898551"
        d="M257.903 719.848C251.465 717.409 244.534 717.732 238.888 720.712L238.345 721.008L85.0634 807.85C79.361 811.081 75.6674 816.761 74.9544 823.348L74.8943 823.988L61.2362 998.609C60.7093 1005.35 63.336 1012.23 68.3675 1017.38L68.8617 1017.87L204.636 1149.53C209.825 1154.56 216.838 1157.24 223.736 1156.83L407.486 1145.94C414.168 1145.54 420.057 1142.29 423.629 1137.04L423.967 1136.53L516.387 991.336C519.917 985.791 520.551 978.754 518.14 972.172L517.897 971.535L450.303 801.732C447.731 795.271 442.468 790.005 435.948 787.335L435.314 787.085L257.903 719.848Z"
        stroke="url(#paint55_linear_1_149)" stroke-width="4" />
    <path opacity="0.927536"
        d="M240.714 728.16C234.78 725.325 228.116 725.018 222.325 727.293L221.767 727.52L60.5393 796.183C54.4015 798.797 49.9625 804.099 48.4107 810.627L48.2692 811.262L14.6231 974.179C13.2049 981.047 15.1107 988.401 19.755 994.097L20.2125 994.643L137.904 1131.07C142.468 1136.36 148.989 1139.54 155.737 1139.77L338.46 1145.94C344.997 1146.16 351.108 1143.58 355.276 1138.88L355.673 1138.42L463.229 1009.59C467.634 1004.32 469.18 997.125 467.445 990.129L467.267 989.453L421.068 823.842C419.194 817.127 414.477 811.396 408.221 808.196L407.611 807.895L240.714 728.16Z"
        stroke="url(#paint56_linear_1_149)" stroke-width="4" />
    <path opacity="0.942029"
        d="M231.393 733.182C225.708 730.168 219.185 729.567 213.347 731.501L212.784 731.696L48.541 791.162C42.2143 793.453 37.4168 798.532 35.444 804.989L35.262 805.618L-7.52391 962.133C-9.40585 969.017 -7.89747 976.567 -3.48189 982.521L-3.04545 983.093L105.632 1121.2C109.88 1126.59 116.148 1130 122.805 1130.53L304.204 1145.02C310.653 1145.54 316.852 1143.31 321.29 1138.89L321.713 1138.46L435.863 1018.15C440.698 1013.06 442.72 1005.84 441.355 998.673L441.213 997.98L405.189 835.169C403.683 828.361 399.263 822.424 393.162 818.97L392.566 818.644L231.393 733.182Z"
        stroke="url(#paint57_linear_1_149)" stroke-width="4" />
    <path opacity="0.956522"
        d="M221.539 738.734C216.102 735.551 209.724 734.669 203.852 736.269L203.286 736.432L36.6701 786.679C30.1747 788.638 25.0331 793.472 22.6418 799.831L22.4182 800.451L-28.915 950.254C-31.268 957.12 -30.1783 964.836 -26.0132 971.033L-25.6005 971.627L74.1224 1110.95C78.0533 1116.44 84.0638 1120.06 90.6212 1120.89L270.17 1143.53C276.522 1144.33 282.793 1142.44 287.482 1138.32L287.931 1137.91L408.012 1026.31C413.266 1021.43 415.775 1014.22 414.798 1006.91L414.692 1006.2L388.46 846.614C387.33 839.737 383.222 833.613 377.289 829.914L376.709 829.563L221.539 738.734Z"
        stroke="url(#paint58_linear_1_149)" stroke-width="4" />
    <path opacity="0.971014"
        d="M211.122 744.778C205.93 741.437 199.7 740.284 193.807 741.558L193.238 741.689L24.8926 782.728C18.2487 784.348 12.7765 788.916 9.97167 795.15L9.7088 795.758L-49.5684 938.579C-52.396 945.392 -51.7433 953.243 -47.8498 959.664L-47.4623 960.282L43.3947 1100.38C47.0085 1105.95 52.7609 1109.78 59.2104 1110.89L236.392 1141.49C242.639 1142.57 248.968 1141 253.89 1137.19L254.363 1136.81L379.707 1034.05C385.367 1029.41 388.366 1022.24 387.794 1014.81L387.727 1014.1L370.878 858.129C370.13 851.206 366.347 844.913 360.596 840.978L360.033 840.604L211.122 744.778Z"
        stroke="url(#paint59_linear_1_149)" stroke-width="4" />
    <path opacity="0.985507"
        d="M200.111 751.273C195.162 747.782 189.082 746.371 183.181 747.326L182.61 747.425L13.1742 779.304C6.4028 780.579 0.617093 784.861 -2.59351 790.941L-2.89621 791.535L-69.5014 927.146C-72.8034 933.869 -72.6028 941.822 -68.9997 948.449L-68.6404 949.085L13.4675 1089.54C16.7647 1095.18 22.2569 1099.19 28.5906 1100.58L202.906 1138.91C209.042 1140.26 215.415 1139.03 220.551 1135.53L221.044 1135.18L350.979 1041.35C357.028 1036.98 360.52 1029.9 360.365 1022.39L360.339 1021.66L352.444 869.667C352.083 862.723 348.635 856.282 343.078 852.119L342.533 851.723L200.111 751.273Z"
        stroke="url(#paint60_linear_1_149)" stroke-width="4" />
    <path
        d="M188.48 758.182C183.77 754.549 177.843 752.886 171.944 753.528L171.374 753.598L1.4825 776.398C-5.39558 777.321 -11.4763 781.298 -15.0826 787.199L-15.4245 787.777L-88.7369 915.988C-92.5091 922.585 -92.7725 930.604 -89.4774 937.417L-89.1475 938.073L-15.646 1078.47C-12.6637 1084.16 -7.43327 1088.35 -1.22263 1090.02L169.743 1135.83C175.76 1137.44 182.164 1136.54 187.495 1133.35L188.009 1133.04L321.86 1048.2C328.278 1044.13 332.259 1037.17 332.532 1029.6L332.546 1028.87L333.162 881.18C333.19 874.24 330.085 867.672 324.734 863.29L324.209 862.872L188.48 758.182Z"
        stroke="url(#paint61_linear_1_149)" stroke-width="4" />
    <defs>
        <linearGradient id="paint0_linear_1_149" x1="1726.49" y1="1469.21" x2="1614.82" y2="422.618"
            gradientUnits="userSpaceOnUse">
            <stop stop-color="#1CFFF7" />
            <stop offset="1" stop-color="#0400FF" stop-opacity="0.56" />
        </linearGradient>
        <linearGradient id="paint1_linear_1_149" x1="1674.54" y1="1466.8" x2="1613.1" y2="430.369"
            gradientUnits="userSpaceOnUse">
            <stop stop-color="#1CFFF7" />
            <stop offset="1" stop-color="#0400FF" stop-opacity="0.56" />
        </linearGradient>
        <linearGradient id="paint2_linear_1_149" x1="1622.9" y1="1463" x2="1610.03" y2="438.417"
            gradientUnits="userSpaceOnUse">
            <stop stop-color="#1CFFF7" />
            <stop offset="1" stop-color="#0400FF" stop-opacity="0.56" />
        </linearGradient>
        <linearGradient id="paint3_linear_1_149" x1="1571.65" y1="1457.84" x2="1605.78" y2="446.641"
            gradientUnits="userSpaceOnUse">
            <stop stop-color="#1CFFF7" />
            <stop offset="1" stop-color="#0400FF" stop-opacity="0.56" />
        </linearGradient>
        <linearGradient id="paint4_linear_1_149" x1="1520.88" y1="1451.36" x2="1600.48" y2="454.942"
            gradientUnits="userSpaceOnUse">
            <stop stop-color="#1CFFF7" />
            <stop offset="1" stop-color="#0400FF" stop-opacity="0.56" />
        </linearGradient>
        <linearGradient id="paint5_linear_1_149" x1="1470.66" y1="1443.6" x2="1594.3" y2="463.254"
            gradientUnits="userSpaceOnUse">
            <stop stop-color="#1CFFF7" />
            <stop offset="1" stop-color="#0400FF" stop-opacity="0.56" />
        </linearGradient>
        <linearGradient id="paint6_linear_1_149" x1="1421.07" y1="1434.61" x2="1587.38" y2="471.532"
            gradientUnits="userSpaceOnUse">
            <stop stop-color="#1CFFF7" />
            <stop offset="1" stop-color="#0400FF" stop-opacity="0.56" />
        </linearGradient>
        <linearGradient id="paint7_linear_1_149" x1="1372.18" y1="1424.42" x2="1579.89" y2="479.756"
            gradientUnits="userSpaceOnUse">
            <stop stop-color="#1CFFF7" />
            <stop offset="1" stop-color="#0400FF" stop-opacity="0.56" />
        </linearGradient>
        <linearGradient id="paint8_linear_1_149" x1="1324.06" y1="1413.1" x2="1571.96" y2="487.929"
            gradientUnits="userSpaceOnUse">
            <stop stop-color="#1CFFF7" />
            <stop offset="1" stop-color="#0400FF" stop-opacity="0.56" />
        </linearGradient>
        <linearGradient id="paint9_linear_1_149" x1="1276.79" y1="1400.69" x2="1563.73" y2="496.075"
            gradientUnits="userSpaceOnUse">
            <stop stop-color="#1CFFF7" />
            <stop offset="1" stop-color="#0400FF" stop-opacity="0.56" />
        </linearGradient>
        <linearGradient id="paint10_linear_1_149" x1="1230.41" y1="1387.25" x2="1555.33"
            y2="504.238" gradientUnits="userSpaceOnUse">
            <stop stop-color="#1CFFF7" />
            <stop offset="1" stop-color="#0400FF" stop-opacity="0.56" />
        </linearGradient>
        <linearGradient id="paint11_linear_1_149" x1="1185" y1="1372.84" x2="1546.87" y2="512.476"
            gradientUnits="userSpaceOnUse">
            <stop stop-color="#1CFFF7" />
            <stop offset="1" stop-color="#0400FF" stop-opacity="0.56" />
        </linearGradient>
        <linearGradient id="paint12_linear_1_149" x1="1140.6" y1="1357.52" x2="1538.45" y2="520.869"
            gradientUnits="userSpaceOnUse">
            <stop stop-color="#1CFFF7" />
            <stop offset="1" stop-color="#0400FF" stop-opacity="0.56" />
        </linearGradient>
        <linearGradient id="paint13_linear_1_149" x1="1097.26" y1="1341.35" x2="1530.16"
            y2="529.507" gradientUnits="userSpaceOnUse">
            <stop stop-color="#1CFFF7" />
            <stop offset="1" stop-color="#0400FF" stop-opacity="0.56" />
        </linearGradient>
        <linearGradient id="paint14_linear_1_149" x1="1055.04" y1="1324.4" x2="1522.05" y2="538.494"
            gradientUnits="userSpaceOnUse">
            <stop stop-color="#1CFFF7" />
            <stop offset="1" stop-color="#0400FF" stop-opacity="0.56" />
        </linearGradient>
        <linearGradient id="paint15_linear_1_149" x1="1013.98" y1="1306.73" x2="1514.17"
            y2="547.944" gradientUnits="userSpaceOnUse">
            <stop stop-color="#1CFFF7" />
            <stop offset="1" stop-color="#0400FF" stop-opacity="0.56" />
        </linearGradient>
        <linearGradient id="paint16_linear_1_149" x1="974.104" y1="1288.41" x2="1506.55" y2="557.98"
            gradientUnits="userSpaceOnUse">
            <stop stop-color="#1CFFF7" />
            <stop offset="1" stop-color="#0400FF" stop-opacity="0.56" />
        </linearGradient>
        <linearGradient id="paint17_linear_1_149" x1="935.456" y1="1269.5" x2="1499.2" y2="568.731"
            gradientUnits="userSpaceOnUse">
            <stop stop-color="#1CFFF7" />
            <stop offset="1" stop-color="#0400FF" stop-opacity="0.56" />
        </linearGradient>
        <linearGradient id="paint18_linear_1_149" x1="898.063" y1="1250.08" x2="1492.09"
            y2="580.328" gradientUnits="userSpaceOnUse">
            <stop stop-color="#1CFFF7" />
            <stop offset="1" stop-color="#0400FF" stop-opacity="0.56" />
        </linearGradient>
        <linearGradient id="paint19_linear_1_149" x1="861.949" y1="1230.22" x2="1485.17"
            y2="592.904" gradientUnits="userSpaceOnUse">
            <stop stop-color="#1CFFF7" />
            <stop offset="1" stop-color="#0400FF" stop-opacity="0.56" />
        </linearGradient>
        <linearGradient id="paint20_linear_1_149" x1="827.133" y1="1209.97" x2="1478.38"
            y2="606.587" gradientUnits="userSpaceOnUse">
            <stop stop-color="#1CFFF7" />
            <stop offset="1" stop-color="#0400FF" stop-opacity="0.56" />
        </linearGradient>
        <linearGradient id="paint21_linear_1_149" x1="793.631" y1="1189.42" x2="1471.61"
            y2="621.499" gradientUnits="userSpaceOnUse">
            <stop stop-color="#1CFFF7" />
            <stop offset="1" stop-color="#0400FF" stop-opacity="0.56" />
        </linearGradient>
        <linearGradient id="paint22_linear_1_149" x1="761.453" y1="1168.63" x2="1464.74"
            y2="637.751" gradientUnits="userSpaceOnUse">
            <stop stop-color="#1CFFF7" />
            <stop offset="1" stop-color="#0400FF" stop-opacity="0.56" />
        </linearGradient>
        <linearGradient id="paint23_linear_1_149" x1="701.089" y1="1126.6" x2="1450.09" y2="674.633"
            gradientUnits="userSpaceOnUse">
            <stop stop-color="#1CFFF7" />
            <stop offset="1" stop-color="#0400FF" stop-opacity="0.56" />
        </linearGradient>
        <linearGradient id="paint24_linear_1_149" x1="672.902" y1="1105.51" x2="1441.93"
            y2="695.384" gradientUnits="userSpaceOnUse">
            <stop stop-color="#1CFFF7" />
            <stop offset="1" stop-color="#0400FF" stop-opacity="0.56" />
        </linearGradient>
        <linearGradient id="paint25_linear_1_149" x1="646.037" y1="1084.44" x2="1432.94"
            y2="717.711" gradientUnits="userSpaceOnUse">
            <stop stop-color="#1CFFF7" />
            <stop offset="1" stop-color="#0400FF" stop-opacity="0.56" />
        </linearGradient>
        <linearGradient id="paint26_linear_1_149" x1="620.483" y1="1063.48" x2="1422.87"
            y2="741.594" gradientUnits="userSpaceOnUse">
            <stop stop-color="#1CFFF7" />
            <stop offset="1" stop-color="#0400FF" stop-opacity="0.56" />
        </linearGradient>
        <linearGradient id="paint27_linear_1_149" x1="596.223" y1="1042.67" x2="1411.49"
            y2="766.976" gradientUnits="userSpaceOnUse">
            <stop stop-color="#1CFFF7" />
            <stop offset="1" stop-color="#0400FF" stop-opacity="0.56" />
        </linearGradient>
        <linearGradient id="paint28_linear_1_149" x1="573.239" y1="1022.09" x2="1398.56"
            y2="793.757" gradientUnits="userSpaceOnUse">
            <stop stop-color="#1CFFF7" />
            <stop offset="1" stop-color="#0400FF" stop-opacity="0.56" />
        </linearGradient>
        <linearGradient id="paint29_linear_1_149" x1="530.998" y1="981.824" x2="1367.11"
            y2="850.891" gradientUnits="userSpaceOnUse">
            <stop stop-color="#1CFFF7" />
            <stop offset="1" stop-color="#0400FF" stop-opacity="0.56" />
        </linearGradient>
        <linearGradient id="paint30_linear_1_149" x1="511.684" y1="962.26" x2="1348.18" y2="880.82"
            gradientUnits="userSpaceOnUse">
            <stop stop-color="#1CFFF7" />
            <stop offset="1" stop-color="#0400FF" stop-opacity="0.56" />
        </linearGradient>
        <linearGradient id="paint31_linear_1_149" x1="493.529" y1="943.146" x2="1326.87"
            y2="911.304" gradientUnits="userSpaceOnUse">
            <stop stop-color="#1CFFF7" />
            <stop offset="1" stop-color="#0400FF" stop-opacity="0.56" />
        </linearGradient>
        <linearGradient id="paint32_linear_1_149" x1="460.543" y1="906.468" x2="1276.73"
            y2="972.687" gradientUnits="userSpaceOnUse">
            <stop stop-color="#1CFFF7" />
            <stop offset="1" stop-color="#0400FF" stop-opacity="0.56" />
        </linearGradient>
        <linearGradient id="paint33_linear_1_149" x1="445.627" y1="888.999" x2="1247.8" y2="1002.91"
            gradientUnits="userSpaceOnUse">
            <stop stop-color="#1CFFF7" />
            <stop offset="1" stop-color="#0400FF" stop-opacity="0.56" />
        </linearGradient>
        <linearGradient id="paint34_linear_1_149" x1="431.702" y1="872.166" x2="1216.35"
            y2="1032.34" gradientUnits="userSpaceOnUse">
            <stop stop-color="#1CFFF7" />
            <stop offset="1" stop-color="#0400FF" stop-opacity="0.56" />
        </linearGradient>
        <linearGradient id="paint35_linear_1_149" x1="418.718" y1="856.011" x2="1182.47"
            y2="1060.66" gradientUnits="userSpaceOnUse">
            <stop stop-color="#1CFFF7" />
            <stop offset="1" stop-color="#0400FF" stop-opacity="0.56" />
        </linearGradient>
        <linearGradient id="paint36_linear_1_149" x1="406.624" y1="840.569" x2="1146.32"
            y2="1087.53" gradientUnits="userSpaceOnUse">
            <stop stop-color="#1CFFF7" />
            <stop offset="1" stop-color="#0400FF" stop-opacity="0.56" />
        </linearGradient>
        <linearGradient id="paint37_linear_1_149" x1="395.367" y1="825.874" x2="1108.13"
            y2="1112.66" gradientUnits="userSpaceOnUse">
            <stop stop-color="#1CFFF7" />
            <stop offset="1" stop-color="#0400FF" stop-opacity="0.56" />
        </linearGradient>
        <linearGradient id="paint38_linear_1_149" x1="375.139" y1="798.842" x2="1026.64"
            y2="1156.81" gradientUnits="userSpaceOnUse">
            <stop stop-color="#1CFFF7" />
            <stop offset="1" stop-color="#0400FF" stop-opacity="0.56" />
        </linearGradient>
        <linearGradient id="paint39_linear_1_149" x1="366.053" y1="786.556" x2="983.938"
            y2="1175.48" gradientUnits="userSpaceOnUse">
            <stop stop-color="#1CFFF7" />
            <stop offset="1" stop-color="#0400FF" stop-opacity="0.56" />
        </linearGradient>
        <linearGradient id="paint40_linear_1_149" x1="357.573" y1="775.117" x2="940.362"
            y2="1191.75" gradientUnits="userSpaceOnUse">
            <stop stop-color="#1CFFF7" />
            <stop offset="1" stop-color="#0400FF" stop-opacity="0.56" />
        </linearGradient>
        <linearGradient id="paint41_linear_1_149" x1="349.639" y1="764.542" x2="896.23" y2="1205.59"
            gradientUnits="userSpaceOnUse">
            <stop stop-color="#1CFFF7" />
            <stop offset="1" stop-color="#0400FF" stop-opacity="0.56" />
        </linearGradient>
        <linearGradient id="paint42_linear_1_149" x1="342.189" y1="754.845" x2="851.849"
            y2="1217.01" gradientUnits="userSpaceOnUse">
            <stop stop-color="#1CFFF7" />
            <stop offset="1" stop-color="#0400FF" stop-opacity="0.56" />
        </linearGradient>
        <linearGradient id="paint43_linear_1_149" x1="328.491" y1="738.12" x2="763.465" y2="1232.96"
            gradientUnits="userSpaceOnUse">
            <stop stop-color="#1CFFF7" />
            <stop offset="1" stop-color="#0400FF" stop-opacity="0.56" />
        </linearGradient>
        <linearGradient id="paint44_linear_1_149" x1="322.12" y1="731.102" x2="719.95" y2="1237.72"
            gradientUnits="userSpaceOnUse">
            <stop stop-color="#1CFFF7" />
            <stop offset="1" stop-color="#0400FF" stop-opacity="0.56" />
        </linearGradient>
        <linearGradient id="paint45_linear_1_149" x1="315.984" y1="724.981" x2="677.156"
            y2="1240.55" gradientUnits="userSpaceOnUse">
            <stop stop-color="#1CFFF7" />
            <stop offset="1" stop-color="#0400FF" stop-opacity="0.56" />
        </linearGradient>
        <linearGradient id="paint46_linear_1_149" x1="310.022" y1="719.754" x2="635.238"
            y2="1241.64" gradientUnits="userSpaceOnUse">
            <stop stop-color="#1CFFF7" />
            <stop offset="1" stop-color="#0400FF" stop-opacity="0.56" />
        </linearGradient>
        <linearGradient id="paint47_linear_1_149" x1="304.172" y1="715.413" x2="594.315"
            y2="1241.18" gradientUnits="userSpaceOnUse">
            <stop stop-color="#1CFFF7" />
            <stop offset="1" stop-color="#0400FF" stop-opacity="0.56" />
        </linearGradient>
        <linearGradient id="paint48_linear_1_149" x1="292.57" y1="709.351" x2="515.76" y2="1236.36"
            gradientUnits="userSpaceOnUse">
            <stop stop-color="#1CFFF7" />
            <stop offset="1" stop-color="#0400FF" stop-opacity="0.56" />
        </linearGradient>
        <linearGradient id="paint49_linear_1_149" x1="286.7" y1="707.6" x2="478.204" y2="1232.38"
            gradientUnits="userSpaceOnUse">
            <stop stop-color="#1CFFF7" />
            <stop offset="1" stop-color="#0400FF" stop-opacity="0.56" />
        </linearGradient>
        <linearGradient id="paint50_linear_1_149" x1="280.708" y1="706.68" x2="441.8" y2="1227.58"
            gradientUnits="userSpaceOnUse">
            <stop stop-color="#1CFFF7" />
            <stop offset="1" stop-color="#0400FF" stop-opacity="0.56" />
        </linearGradient>
        <linearGradient id="paint51_linear_1_149" x1="274.54" y1="706.568" x2="406.525" y2="1222.13"
            gradientUnits="userSpaceOnUse">
            <stop stop-color="#1CFFF7" />
            <stop offset="1" stop-color="#0400FF" stop-opacity="0.56" />
        </linearGradient>
        <linearGradient id="paint52_linear_1_149" x1="268.142" y1="707.24" x2="372.337" y2="1216.16"
            gradientUnits="userSpaceOnUse">
            <stop stop-color="#1CFFF7" />
            <stop offset="1" stop-color="#0400FF" stop-opacity="0.56" />
        </linearGradient>
        <linearGradient id="paint53_linear_1_149" x1="261.463" y1="708.671" x2="339.179"
            y2="1209.81" gradientUnits="userSpaceOnUse">
            <stop stop-color="#1CFFF7" />
            <stop offset="1" stop-color="#0400FF" stop-opacity="0.56" />
        </linearGradient>
        <linearGradient id="paint54_linear_1_149" x1="254.454" y1="710.831" x2="306.987"
            y2="1203.18" gradientUnits="userSpaceOnUse">
            <stop stop-color="#1CFFF7" />
            <stop offset="1" stop-color="#0400FF" stop-opacity="0.56" />
        </linearGradient>
        <linearGradient id="paint55_linear_1_149" x1="247.069" y1="713.688" x2="275.685"
            y2="1196.37" gradientUnits="userSpaceOnUse">
            <stop stop-color="#1CFFF7" />
            <stop offset="1" stop-color="#0400FF" stop-opacity="0.56" />
        </linearGradient>
        <linearGradient id="paint56_linear_1_149" x1="230.993" y1="721.362" x2="215.433" y2="1182.5"
            gradientUnits="userSpaceOnUse">
            <stop stop-color="#1CFFF7" />
            <stop offset="1" stop-color="#0400FF" stop-opacity="0.56" />
        </linearGradient>
        <linearGradient id="paint57_linear_1_149" x1="222.222" y1="726.107" x2="186.319"
            y2="1175.55" gradientUnits="userSpaceOnUse">
            <stop stop-color="#1CFFF7" />
            <stop offset="1" stop-color="#0400FF" stop-opacity="0.56" />
        </linearGradient>
        <linearGradient id="paint58_linear_1_149" x1="212.914" y1="731.407" x2="157.774"
            y2="1168.63" gradientUnits="userSpaceOnUse">
            <stop stop-color="#1CFFF7" />
            <stop offset="1" stop-color="#0400FF" stop-opacity="0.56" />
        </linearGradient>
        <linearGradient id="paint59_linear_1_149" x1="203.034" y1="737.221" x2="129.719"
            y2="1161.76" gradientUnits="userSpaceOnUse">
            <stop stop-color="#1CFFF7" />
            <stop offset="1" stop-color="#0400FF" stop-opacity="0.56" />
        </linearGradient>
        <linearGradient id="paint60_linear_1_149" x1="192.553" y1="743.509" x2="102.083"
            y2="1154.97" gradientUnits="userSpaceOnUse">
            <stop stop-color="#1CFFF7" />
            <stop offset="1" stop-color="#0400FF" stop-opacity="0.56" />
        </linearGradient>
        <linearGradient id="paint61_linear_1_149" x1="181.444" y1="750.228" x2="74.7981"
            y2="1148.23" gradientUnits="userSpaceOnUse">
            <stop stop-color="#1CFFF7" />
            <stop offset="1" stop-color="#0400FF" stop-opacity="0.56" />
        </linearGradient>
    </defs>
</svg>